<?xml version="1.0" encoding="iso-8859-1"?>
<!-- Generator: Adobe Illustrator 19.0.0, SVG Export Plug-In . SVG Version: 6.00 Build 0)  -->
<svg version="1.1" id="Layer_1" xmlns="http://www.w3.org/2000/svg" xmlns:xlink="http://www.w3.org/1999/xlink" x="0px" y="0px"
	 viewBox="0 0 512 512" style="enable-background:new 0 0 512 512;" xml:space="preserve">
<circle style="fill:#E05B49;" cx="256" cy="256" r="256"/>
<path style="opacity:0.1;enable-background:new    ;" d="M355.147,109.339H182.933c-19.84,0-35.893,16.053-35.893,35.84v222.027
	c-0.352,11.616,5.099,21.968,13.648,28.453L276.16,511.136c129.963-10.133,232.619-117.259,235.685-249.083L362.416,112.624
	C360.613,110.619,358.032,109.339,355.147,109.339z"/>
<path style="fill:#27A2DB;" d="M355.12,109.333H182.912c-19.803,0-35.856,16.053-35.856,35.856v222.027
	c0.565-18.821,16.987-33.333,35.813-33.333h177.397c2.592,0,4.699,2.101,4.699,4.699V119.168
	C364.96,113.739,360.555,109.333,355.12,109.333z"/>
<rect x="182.933" y="109.333" style="fill:#2D93BA;" width="5.893" height="230.24"/>
<path style="fill:#1C75A1;" d="M181.429,393.275c-14.608,0-26.331-12.597-24.875-27.493c1.269-12.987,12.944-22.496,25.989-22.496
	h177.723c2.592,0,4.699-2.101,4.699-4.699l0,0c0-2.592-2.101-4.699-4.699-4.699H182.869c-18.832,0-35.248,14.512-35.813,33.333
	c-0.581,19.477,15.029,35.445,34.373,35.445h178.837c2.592,0,4.699-2.101,4.699-4.699l0,0c0-2.592-2.101-4.699-4.699-4.699H181.429
	V393.275z"/>
<path style="fill:#EBF0F3;" d="M156.56,365.776c-1.456,14.901,10.267,27.493,24.875,27.493h177.941
	c-7.755-16.667-7.755-33.328,0-49.995H182.544C169.499,343.28,157.824,352.789,156.56,365.776z"/>
<g>
	<path style="fill:#E1E6E9;" d="M171.904,354.683h183.429c0.165-0.661,0.384-1.323,0.576-1.979H171.904V354.683z"/>
	<path style="fill:#E1E6E9;" d="M171.904,361.973h182.027c0.08-0.661,0.245-1.323,0.347-1.984H171.904V361.973z"/>
	<path style="fill:#E1E6E9;" d="M171.904,369.269h181.712c-0.011-0.661-0.011-1.323,0-1.984H171.904V369.269z"/>
	<path style="fill:#E1E6E9;" d="M171.904,376.56h182.373c-0.101-0.661-0.267-1.323-0.347-1.979H171.904V376.56z"/>
	<path style="fill:#E1E6E9;" d="M171.904,383.851h184.005c-0.192-0.661-0.411-1.323-0.576-1.979H171.904V383.851z"/>
</g>
<polygon style="fill:#E56353;" points="284.037,398.357 264.432,387.104 244.827,398.357 244.827,352.704 284.037,352.704 "/>
<g>
</g>
<g>
</g>
<g>
</g>
<g>
</g>
<g>
</g>
<g>
</g>
<g>
</g>
<g>
</g>
<g>
</g>
<g>
</g>
<g>
</g>
<g>
</g>
<g>
</g>
<g>
</g>
<g>
</g>
</svg>
